<mxfile host="app.diagrams.net" modified="2023-01-29T06:21:51.957Z" agent="5.0 (X11; Linux x86_64) AppleWebKit/537.36 (KHTML, like Gecko) Chrome/109.0.0.0 Safari/537.36" version="20.8.5" etag="os1M6ivAa2aX1yP_5Ss0" type="github">
  <diagram id="Jrt36kSek3xFMToZ_vsR" name="Page-1">
    <mxGraphModel dx="1666" dy="816" grid="1" gridSize="10" guides="1" tooltips="1" connect="1" arrows="1" fold="1" page="1" pageScale="1" pageWidth="850" pageHeight="1100" math="0" shadow="0">
      <root>
        <mxCell id="0" />
        <mxCell id="1" parent="0" />
        <mxCell id="PR2Aw63_hlmystXD9PEJ-24" style="edgeStyle=orthogonalEdgeStyle;rounded=0;sketch=1;hachureGap=4;jiggle=2;curveFitting=1;orthogonalLoop=1;jettySize=auto;html=1;fontFamily=Architects Daughter;fontSource=https%3A%2F%2Ffonts.googleapis.com%2Fcss%3Ffamily%3DArchitects%2BDaughter;fontSize=16;" edge="1" parent="1" source="PR2Aw63_hlmystXD9PEJ-3" target="PR2Aw63_hlmystXD9PEJ-4">
          <mxGeometry relative="1" as="geometry" />
        </mxCell>
        <mxCell id="PR2Aw63_hlmystXD9PEJ-3" value="User" style="html=1;sketch=1;hachureGap=4;jiggle=2;curveFitting=1;fontFamily=Architects Daughter;fontSource=https%3A%2F%2Ffonts.googleapis.com%2Fcss%3Ffamily%3DArchitects%2BDaughter;fontSize=20;" vertex="1" parent="1">
          <mxGeometry x="350" y="400" width="70" height="40" as="geometry" />
        </mxCell>
        <mxCell id="PR2Aw63_hlmystXD9PEJ-25" style="edgeStyle=orthogonalEdgeStyle;rounded=0;sketch=1;hachureGap=4;jiggle=2;curveFitting=1;orthogonalLoop=1;jettySize=auto;html=1;fontFamily=Architects Daughter;fontSource=https%3A%2F%2Ffonts.googleapis.com%2Fcss%3Ffamily%3DArchitects%2BDaughter;fontSize=16;" edge="1" parent="1" source="PR2Aw63_hlmystXD9PEJ-4" target="PR2Aw63_hlmystXD9PEJ-5">
          <mxGeometry relative="1" as="geometry" />
        </mxCell>
        <mxCell id="PR2Aw63_hlmystXD9PEJ-4" value="Authentication Layer" style="html=1;sketch=1;hachureGap=4;jiggle=2;curveFitting=1;fontFamily=Architects Daughter;fontSource=https%3A%2F%2Ffonts.googleapis.com%2Fcss%3Ffamily%3DArchitects%2BDaughter;fontSize=20;" vertex="1" parent="1">
          <mxGeometry x="275" y="480" width="220" height="40" as="geometry" />
        </mxCell>
        <mxCell id="PR2Aw63_hlmystXD9PEJ-5" value="File System" style="html=1;sketch=1;hachureGap=4;jiggle=2;curveFitting=1;fontFamily=Architects Daughter;fontSource=https%3A%2F%2Ffonts.googleapis.com%2Fcss%3Ffamily%3DArchitects%2BDaughter;fontSize=20;" vertex="1" parent="1">
          <mxGeometry x="320" y="560" width="130" height="40" as="geometry" />
        </mxCell>
        <mxCell id="PR2Aw63_hlmystXD9PEJ-9" value="File Structure" style="swimlane;startSize=20;horizontal=1;childLayout=treeLayout;horizontalTree=0;resizable=0;containerType=tree;fontSize=12;sketch=1;hachureGap=4;jiggle=2;curveFitting=1;fontFamily=Architects Daughter;fontSource=https%3A%2F%2Ffonts.googleapis.com%2Fcss%3Ffamily%3DArchitects%2BDaughter;" vertex="1" parent="1">
          <mxGeometry x="60" y="60" width="517" height="280" as="geometry" />
        </mxCell>
        <mxCell id="PR2Aw63_hlmystXD9PEJ-10" value="/" style="whiteSpace=wrap;html=1;sketch=1;hachureGap=4;jiggle=2;curveFitting=1;fontFamily=Architects Daughter;fontSource=https%3A%2F%2Ffonts.googleapis.com%2Fcss%3Ffamily%3DArchitects%2BDaughter;fontSize=20;" vertex="1" parent="PR2Aw63_hlmystXD9PEJ-9">
          <mxGeometry x="161" y="40" width="30" height="40" as="geometry" />
        </mxCell>
        <mxCell id="PR2Aw63_hlmystXD9PEJ-11" value="root" style="whiteSpace=wrap;html=1;sketch=1;hachureGap=4;jiggle=2;curveFitting=1;fontFamily=Architects Daughter;fontSource=https%3A%2F%2Ffonts.googleapis.com%2Fcss%3Ffamily%3DArchitects%2BDaughter;fontSize=20;" vertex="1" parent="PR2Aw63_hlmystXD9PEJ-9">
          <mxGeometry x="20" y="130" width="70" height="40" as="geometry" />
        </mxCell>
        <mxCell id="PR2Aw63_hlmystXD9PEJ-12" value="" style="edgeStyle=elbowEdgeStyle;elbow=vertical;html=1;rounded=1;curved=0;sourcePerimeterSpacing=0;targetPerimeterSpacing=0;startSize=6;endSize=6;sketch=1;hachureGap=4;jiggle=2;curveFitting=1;fontFamily=Architects Daughter;fontSource=https%3A%2F%2Ffonts.googleapis.com%2Fcss%3Ffamily%3DArchitects%2BDaughter;fontSize=16;" edge="1" parent="PR2Aw63_hlmystXD9PEJ-9" source="PR2Aw63_hlmystXD9PEJ-10" target="PR2Aw63_hlmystXD9PEJ-11">
          <mxGeometry relative="1" as="geometry" />
        </mxCell>
        <mxCell id="PR2Aw63_hlmystXD9PEJ-13" value="home" style="whiteSpace=wrap;html=1;sketch=1;hachureGap=4;jiggle=2;curveFitting=1;fontFamily=Architects Daughter;fontSource=https%3A%2F%2Ffonts.googleapis.com%2Fcss%3Ffamily%3DArchitects%2BDaughter;fontSize=20;" vertex="1" parent="PR2Aw63_hlmystXD9PEJ-9">
          <mxGeometry x="262" y="130" width="70" height="40" as="geometry" />
        </mxCell>
        <mxCell id="PR2Aw63_hlmystXD9PEJ-14" value="" style="edgeStyle=elbowEdgeStyle;elbow=vertical;html=1;rounded=1;curved=0;sourcePerimeterSpacing=0;targetPerimeterSpacing=0;startSize=6;endSize=6;sketch=1;hachureGap=4;jiggle=2;curveFitting=1;fontFamily=Architects Daughter;fontSource=https%3A%2F%2Ffonts.googleapis.com%2Fcss%3Ffamily%3DArchitects%2BDaughter;fontSize=16;" edge="1" parent="PR2Aw63_hlmystXD9PEJ-9" source="PR2Aw63_hlmystXD9PEJ-10" target="PR2Aw63_hlmystXD9PEJ-13">
          <mxGeometry relative="1" as="geometry" />
        </mxCell>
        <mxCell id="PR2Aw63_hlmystXD9PEJ-15" value="" style="edgeStyle=elbowEdgeStyle;elbow=vertical;html=1;rounded=1;curved=0;sourcePerimeterSpacing=0;targetPerimeterSpacing=0;startSize=6;endSize=6;sketch=1;hachureGap=4;jiggle=2;curveFitting=1;fontFamily=Architects Daughter;fontSource=https%3A%2F%2Ffonts.googleapis.com%2Fcss%3Ffamily%3DArchitects%2BDaughter;fontSize=16;" edge="1" target="PR2Aw63_hlmystXD9PEJ-16" source="PR2Aw63_hlmystXD9PEJ-13" parent="PR2Aw63_hlmystXD9PEJ-9">
          <mxGeometry relative="1" as="geometry">
            <mxPoint x="468" y="165" as="sourcePoint" />
          </mxGeometry>
        </mxCell>
        <mxCell id="PR2Aw63_hlmystXD9PEJ-16" value="User 1" style="whiteSpace=wrap;html=1;sketch=1;hachureGap=4;jiggle=2;curveFitting=1;fontFamily=Architects Daughter;fontSource=https%3A%2F%2Ffonts.googleapis.com%2Fcss%3Ffamily%3DArchitects%2BDaughter;fontSize=20;" vertex="1" parent="PR2Aw63_hlmystXD9PEJ-9">
          <mxGeometry x="97" y="220" width="80" height="40" as="geometry" />
        </mxCell>
        <mxCell id="PR2Aw63_hlmystXD9PEJ-17" value="" style="edgeStyle=elbowEdgeStyle;elbow=vertical;html=1;rounded=1;curved=0;sourcePerimeterSpacing=0;targetPerimeterSpacing=0;startSize=6;endSize=6;sketch=1;hachureGap=4;jiggle=2;curveFitting=1;fontFamily=Architects Daughter;fontSource=https%3A%2F%2Ffonts.googleapis.com%2Fcss%3Ffamily%3DArchitects%2BDaughter;fontSize=16;" edge="1" target="PR2Aw63_hlmystXD9PEJ-18" source="PR2Aw63_hlmystXD9PEJ-13" parent="PR2Aw63_hlmystXD9PEJ-9">
          <mxGeometry relative="1" as="geometry">
            <mxPoint x="468" y="165" as="sourcePoint" />
          </mxGeometry>
        </mxCell>
        <mxCell id="PR2Aw63_hlmystXD9PEJ-18" value="User 2" style="whiteSpace=wrap;html=1;sketch=1;hachureGap=4;jiggle=2;curveFitting=1;fontFamily=Architects Daughter;fontSource=https%3A%2F%2Ffonts.googleapis.com%2Fcss%3Ffamily%3DArchitects%2BDaughter;fontSize=20;" vertex="1" parent="PR2Aw63_hlmystXD9PEJ-9">
          <mxGeometry x="217" y="220" width="90" height="40" as="geometry" />
        </mxCell>
        <mxCell id="PR2Aw63_hlmystXD9PEJ-19" value="" style="edgeStyle=elbowEdgeStyle;elbow=vertical;html=1;rounded=1;curved=0;sourcePerimeterSpacing=0;targetPerimeterSpacing=0;startSize=6;endSize=6;sketch=1;hachureGap=4;jiggle=2;curveFitting=1;fontFamily=Architects Daughter;fontSource=https%3A%2F%2Ffonts.googleapis.com%2Fcss%3Ffamily%3DArchitects%2BDaughter;fontSize=16;" edge="1" target="PR2Aw63_hlmystXD9PEJ-20" source="PR2Aw63_hlmystXD9PEJ-13" parent="PR2Aw63_hlmystXD9PEJ-9">
          <mxGeometry relative="1" as="geometry">
            <mxPoint x="496" y="160" as="sourcePoint" />
          </mxGeometry>
        </mxCell>
        <mxCell id="PR2Aw63_hlmystXD9PEJ-20" value="..." style="whiteSpace=wrap;html=1;sketch=1;hachureGap=4;jiggle=2;curveFitting=1;fontFamily=Architects Daughter;fontSource=https%3A%2F%2Ffonts.googleapis.com%2Fcss%3Ffamily%3DArchitects%2BDaughter;fontSize=20;" vertex="1" parent="PR2Aw63_hlmystXD9PEJ-9">
          <mxGeometry x="347" y="220" width="30" height="40" as="geometry" />
        </mxCell>
        <mxCell id="PR2Aw63_hlmystXD9PEJ-21" value="" style="edgeStyle=elbowEdgeStyle;elbow=vertical;html=1;rounded=1;curved=0;sourcePerimeterSpacing=0;targetPerimeterSpacing=0;startSize=6;endSize=6;sketch=1;hachureGap=4;jiggle=2;curveFitting=1;fontFamily=Architects Daughter;fontSource=https%3A%2F%2Ffonts.googleapis.com%2Fcss%3Ffamily%3DArchitects%2BDaughter;fontSize=16;" edge="1" target="PR2Aw63_hlmystXD9PEJ-22" source="PR2Aw63_hlmystXD9PEJ-13" parent="PR2Aw63_hlmystXD9PEJ-9">
          <mxGeometry relative="1" as="geometry">
            <mxPoint x="622" y="160" as="sourcePoint" />
          </mxGeometry>
        </mxCell>
        <mxCell id="PR2Aw63_hlmystXD9PEJ-22" value="User 3" style="whiteSpace=wrap;html=1;sketch=1;hachureGap=4;jiggle=2;curveFitting=1;fontFamily=Architects Daughter;fontSource=https%3A%2F%2Ffonts.googleapis.com%2Fcss%3Ffamily%3DArchitects%2BDaughter;fontSize=20;" vertex="1" parent="PR2Aw63_hlmystXD9PEJ-9">
          <mxGeometry x="417" y="220" width="80" height="40" as="geometry" />
        </mxCell>
      </root>
    </mxGraphModel>
  </diagram>
</mxfile>
